<svg width="32" height="32" xmlns="http://www.w3.org/2000/svg">

 <g>
  <title>background</title>
  <rect fill="none" id="canvas_background" height="7.33333" width="7.33333" y="-1" x="-1"/>
 </g>
 <g>
  <title>Layer 1</title>
  <path id="svg_2" stroke-width="0.5" stroke="#6FBE49" fill="#6FBE49" d="m26.5,5l-22,0c-0.39769,0.00042 -0.77898,0.15859 -1.06019,0.43981c-0.28122,0.28121 -0.43939,0.6625 -0.43981,1.06019l0,16c0.00042,0.3977 0.15859,0.779 0.43981,1.0602c0.28121,0.2812 0.6625,0.4394 1.06019,0.4398l12.6631,0c0.1105,0.0005 0.2178,0.037 0.3057,0.104l4.9258,3.6909c0.1483,0.1128 0.3251,0.1819 0.5105,0.1996c0.1855,0.0176 0.3722,-0.0168 0.5391,-0.0996c0.1669,-0.0827 0.3073,-0.2104 0.4056,-0.3687c0.0982,-0.1583 0.1502,-0.3409 0.1502,-0.5272l0,-2.999l2.5,0c0.3977,-0.0004 0.779,-0.1586 1.0602,-0.4398c0.2812,-0.2812 0.4394,-0.6625 0.4398,-1.0602l0,-16c-0.0004,-0.39769 -0.1586,-0.77898 -0.4398,-1.06019c-0.2812,-0.28122 -0.6625,-0.43939 -1.0602,-0.43981zm0.5,17.5c-0.0002,0.1326 -0.0529,0.2596 -0.1467,0.3533c-0.0937,0.0938 -0.2207,0.1465 -0.3533,0.1467l-2.8,0c-0.1856,0.0003 -0.3634,0.0741 -0.4947,0.2053c-0.1312,0.1313 -0.205,0.3091 -0.2053,0.4947l-0.0029,3.2969l-4.9258,-3.6909c-0.2615,-0.198 -0.5802,-0.3055 -0.9082,-0.3062l-12.6631,0c-0.13255,-0.0002 -0.25962,-0.0529 -0.35335,-0.1467c-0.09373,-0.0937 -0.14646,-0.2207 -0.14665,-0.3533l0,-16c0.00019,-0.13255 0.05292,-0.25962 0.14665,-0.35335c0.09373,-0.09373 0.2208,-0.14646 0.35335,-0.14665l22,0c0.1326,0.00019 0.2596,0.05292 0.3533,0.14665c0.0938,0.09373 0.1465,0.2208 0.1467,0.35335l0,16.0002z"/>
 </g>
</svg>