
<svg width="34" height="32" viewBox="0 0 34 32" fill="none" xmlns="http://www.w3.org/2000/svg">
<path d="M26.8823 8.96472C26.561 8.96791 26.2426 9.0266 25.9412 9.13818C26.4911 9.32997 26.9678 9.68811 27.3051 10.1629C27.6424 10.6378 27.8236 11.2058 27.8236 11.7883C27.8236 12.3707 27.6424 12.9387 27.3051 13.4136C26.9678 13.8884 26.4911 14.2465 25.9412 14.4383C26.2426 14.5499 26.561 14.6086 26.8823 14.6118C27.6312 14.6118 28.3494 14.3143 28.8789 13.7848C29.4084 13.2553 29.7059 12.5371 29.7059 11.7883C29.7059 11.0394 29.4084 10.3212 28.8789 9.79171C28.3494 9.2622 27.6312 8.96472 26.8823 8.96472Z" fill="#D3ECC6"/>
<path d="M7.11766 8.96472C7.43903 8.96791 7.75744 9.0266 8.05884 9.13818C7.50888 9.32997 7.0322 9.68811 6.69491 10.1629C6.35761 10.6378 6.17641 11.2058 6.17641 11.7883C6.17641 12.3707 6.35761 12.9387 6.69491 13.4136C7.0322 13.8884 7.50888 14.2465 8.05884 14.4383C7.75744 14.5499 7.43903 14.6086 7.11766 14.6118C6.36881 14.6118 5.65064 14.3143 5.12112 13.7848C4.59161 13.2553 4.29413 12.5371 4.29413 11.7883C4.29413 11.0394 4.59161 10.3212 5.12112 9.79171C5.65064 9.2622 6.36881 8.96472 7.11766 8.96472Z" fill="#D3ECC6"/>
<path d="M17 8.96472C16.6819 8.96885 16.3656 9.01377 16.0588 9.09837C16.8662 9.30359 17.5821 9.77202 18.0934 10.4296C18.6047 11.0872 18.8824 11.8964 18.8824 12.7294C18.8824 13.5624 18.6047 14.3717 18.0934 15.0293C17.5821 15.6868 16.8662 16.1553 16.0588 16.3605C16.3656 16.4451 16.6819 16.49 17 16.4941C17.9985 16.4941 18.956 16.0975 19.6621 15.3915C20.3681 14.6855 20.7647 13.7279 20.7647 12.7294C20.7647 11.731 20.3681 10.7734 19.6621 10.0674C18.956 9.36136 17.9985 8.96472 17 8.96472Z" fill="#D3ECC6"/>
<path d="M19.1842 16.8742C20.1164 16.3857 20.858 15.5988 21.2904 14.6394C21.7228 13.6799 21.821 12.6031 21.5695 11.5812C21.318 10.5593 20.7312 9.65115 19.9028 9.00197C19.0745 8.35278 18.0524 8 17 8C15.9476 8 14.9255 8.35278 14.0972 9.00197C13.2689 9.65115 12.682 10.5593 12.4305 11.5812C12.179 12.6031 12.2773 13.6799 12.7097 14.6394C13.1421 15.5988 13.8836 16.3857 14.8158 16.8742C13.506 17.4305 12.3894 18.361 11.606 19.549C10.8226 20.7371 10.4072 22.1299 10.4118 23.5529C10.4118 23.6778 10.4614 23.7975 10.5496 23.8857C10.6379 23.974 10.7576 24.0235 10.8824 24.0235C11.0072 24.0235 11.1269 23.974 11.2151 23.8857C11.3034 23.7975 11.353 23.6778 11.353 23.5529C11.353 20.439 13.886 17.4353 17 17.4353C20.114 17.4353 22.6471 20.439 22.6471 23.5529C22.6471 23.6778 22.6967 23.7975 22.7849 23.8857C22.8732 23.974 22.9929 24.0235 23.1177 24.0235C23.2425 24.0235 23.3622 23.974 23.4504 23.8857C23.5387 23.7975 23.5883 23.6778 23.5883 23.5529C23.5929 22.1299 23.1774 20.7371 22.394 19.549C21.6106 18.361 20.4941 17.4305 19.1842 16.8742ZM13.2353 12.7294C13.2353 11.9848 13.4561 11.257 13.8698 10.6379C14.2834 10.0188 14.8714 9.53623 15.5593 9.25129C16.2472 8.96634 17.0042 8.89179 17.7345 9.03705C18.4648 9.18231 19.1356 9.54087 19.6621 10.0674C20.1886 10.5939 20.5471 11.2647 20.6924 11.995C20.8376 12.7252 20.7631 13.4822 20.4782 14.1701C20.1932 14.858 19.7107 15.446 19.0916 15.8597C18.4725 16.2733 17.7446 16.4941 17 16.4941C16.0019 16.493 15.045 16.096 14.3392 15.3902C13.6335 14.6844 13.2365 13.7275 13.2353 12.7294Z" fill="#6FBE49" stroke="#6FBE49" stroke-width="0.5"/>
<path d="M28.8965 14.9594C29.5858 14.5231 30.1147 13.8747 30.4036 13.1118C30.6925 12.3488 30.7258 11.5127 30.4984 10.7292C30.2711 9.94576 29.7953 9.25735 29.1429 8.76762C28.4905 8.27788 27.6966 8.01334 26.8808 8.01379C26.065 8.01425 25.2714 8.27969 24.6195 8.77016C23.9676 9.26062 23.4927 9.94957 23.2662 10.7333C23.0397 11.517 23.0739 12.3531 23.3637 13.1157C23.6534 13.8783 24.1831 14.5261 24.8729 14.9617C23.6312 15.3942 22.5611 16.2137 21.8199 17.2997C22.0649 17.5069 22.2965 17.7295 22.5133 17.966C23.1116 17.0174 24.0021 16.289 25.0504 15.8906C26.0988 15.4922 27.2482 15.4454 28.3255 15.7573C29.4028 16.0692 30.3495 16.7228 31.0229 17.6196C31.6963 18.5165 32.0599 19.6079 32.0588 20.7294C32.0588 20.8542 32.1084 20.9739 32.1967 21.0622C32.2849 21.1504 32.4046 21.2 32.5294 21.2C32.6542 21.2 32.7739 21.1504 32.8622 21.0622C32.9504 20.9739 33 20.8542 33 20.7294C32.9978 19.4611 32.6019 18.2248 31.8668 17.1912C31.1317 16.1576 30.0938 15.3778 28.8965 14.9594ZM24.0588 11.7882C24.0588 11.2298 24.2244 10.6839 24.5347 10.2196C24.845 9.75525 25.2859 9.39335 25.8019 9.17965C26.3178 8.96594 26.8855 8.91003 27.4332 9.01897C27.9809 9.12792 28.484 9.39683 28.8789 9.79171C29.2738 10.1866 29.5427 10.6897 29.6517 11.2374C29.7606 11.7851 29.7047 12.3528 29.491 12.8688C29.2773 13.3847 28.9154 13.8257 28.451 14.1359C27.9867 14.4462 27.4408 14.6118 26.8824 14.6118C26.1338 14.6109 25.4161 14.3132 24.8868 13.7838C24.3574 13.2545 24.0597 12.5368 24.0588 11.7882Z" fill="#6FBE49" stroke="#6FBE49" stroke-width="0.5"/>
<path d="M5.1035 14.9594C4.41421 14.5231 3.88529 13.8747 3.59638 13.1118C3.30747 12.3488 3.2742 11.5127 3.50157 10.7292C3.72895 9.94576 4.20466 9.25735 4.8571 8.76762C5.50955 8.27788 6.30342 8.01334 7.11922 8.01379C7.93501 8.01425 8.72858 8.27969 9.38048 8.77016C10.0324 9.26062 10.5073 9.94957 10.7338 10.7333C10.9603 11.517 10.9261 12.3531 10.6363 13.1157C10.3466 13.8783 9.81691 14.5261 9.12713 14.9617C10.3688 15.3942 11.4389 16.2137 12.1801 17.2997C11.9351 17.5069 11.7035 17.7295 11.4867 17.966C10.8884 17.0174 9.99795 16.289 8.94959 15.8906C7.90123 15.4922 6.75176 15.4454 5.67449 15.7573C4.59721 16.0692 3.65052 16.7228 2.97712 17.6196C2.30372 18.5165 1.94013 19.6079 1.94115 20.7294C1.94115 20.8542 1.89157 20.9739 1.80332 21.0622C1.71507 21.1504 1.59537 21.2 1.47056 21.2C1.34575 21.2 1.22606 21.1504 1.13781 21.0622C1.04955 20.9739 0.999974 20.8542 0.999974 20.7294C1.00216 19.4611 1.39814 18.2248 2.13321 17.1912C2.86828 16.1576 3.90617 15.3778 5.1035 14.9594ZM9.94115 11.7882C9.94115 11.2298 9.77555 10.6839 9.4653 10.2196C9.15505 9.75525 8.71407 9.39335 8.19814 9.17965C7.68221 8.96594 7.11449 8.91003 6.56678 9.01897C6.01907 9.12792 5.51596 9.39683 5.12108 9.79171C4.72621 10.1866 4.45729 10.6897 4.34834 11.2374C4.2394 11.7851 4.29531 12.3528 4.50902 12.8688C4.72273 13.3847 5.08463 13.8257 5.54895 14.1359C6.01328 14.4462 6.55918 14.6118 7.11762 14.6118C7.86621 14.6109 8.58389 14.3132 9.11322 13.7838C9.64255 13.2545 9.9403 12.5368 9.94115 11.7882Z" fill="#6FBE49" stroke="#6FBE49" stroke-width="0.5"/>
</svg>
