
<svg width="24" height="24" viewBox="0 0 24 24" fill="none" xmlns="http://www.w3.org/2000/svg">
<circle cx="12" cy="12" r="12" fill="#FF4D82"/>
<path d="M18.6 9.89998C18.6 6.42623 15.7738 3.59998 12.3 3.59998C8.82625 3.59998 6 6.42623 6 9.89998C6 13.1368 8.45455 15.809 11.6 16.1587V17.25H9.85V18.65H11.6V20.4H13V18.65H14.75V17.25H13V16.1587C16.1455 15.809 18.6 13.1368 18.6 9.89998ZM7.4 9.89998C7.4 7.19798 9.598 4.99998 12.3 4.99998C15.002 4.99998 17.2 7.19798 17.2 9.89998C17.2 12.602 15.002 14.8 12.3 14.8C9.598 14.8 7.4 12.602 7.4 9.89998Z" fill="white"/>
</svg>
