<svg width="32" height="32" xmlns="http://www.w3.org/2000/svg">
 <g>
  <title>background</title>
  <rect x="-1" y="-1" width="7.33333" height="7.33333" id="canvas_background" fill="none"/>
 </g>

 <g>
  <title>Layer 1</title>
  <path d="m29.0957,16.1429l-13.0908,-11.99988c-0.1007,-0.09201 -0.2322,-0.14302 -0.3686,-0.14302c-0.1364,0 -0.2679,0.05101 -0.3686,0.14302l-13.09078,11.99988c-0.10666,0.0978 -0.17011,0.2339 -0.1764,0.3784c-0.00629,0.1446 0.04509,0.2857 0.14286,0.3924c0.09776,0.1066 0.23389,0.1701 0.37844,0.1764c0.14454,0.0063 0.28567,-0.0451 0.39233,-0.1429l2.35874,-2.1621l0,11.5786c0,0.4339 0.1724,0.8502 0.47928,1.157c0.30687,0.3069 0.72309,0.4793 1.15707,0.4793l17.45436,0c0.434,0 0.8502,-0.1724 1.1571,-0.4793c0.3069,-0.3068 0.4793,-0.7231 0.4793,-1.157l0,-11.5781l2.3585,2.1615c0.1067,0.0978 0.2478,0.1492 0.3923,0.1429c0.1446,-0.0063 0.2807,-0.0698 0.3785,-0.1764c0.0977,-0.1067 0.1491,-0.2478 0.1428,-0.3924c-0.0063,-0.1445 -0.0697,-0.2806 -0.1764,-0.3784l0,0.0001zm-4.1866,-2.3246l0,12.5454c0,0.1446 -0.0575,0.2834 -0.1598,0.3856c-0.1023,0.1023 -0.241,0.1598 -0.3857,0.1598l-17.45436,0c-0.14466,0 -0.2834,-0.0575 -0.38569,-0.1598c-0.10229,-0.1022 -0.15976,-0.241 -0.15976,-0.3856l0,-12.5454l-0.036,0l9.30861,-8.53333l9.3086,8.53333l-0.0359,0z" fill="#6FBE49" stroke="#6FBE49" stroke-width="0.5" id="svg_3"/>
 </g>
</svg>