
<svg width="24" height="24" viewBox="0 0 24 24" fill="none" xmlns="http://www.w3.org/2000/svg">
<path d="M24 12C24 13.4025 23.7595 14.7487 23.317 15.9998C22.7902 17.4905 21.9773 18.8461 20.9442 20.0002C18.7467 22.455 15.5536 24 12 24C8.44641 24 5.25328 22.455 3.05578 20.0002C2.02266 18.8461 1.20984 17.4905 0.682969 15.9998C0.240469 14.7487 0 13.4025 0 12C0 10.5975 0.240469 9.25125 0.682969 8.00016C1.20984 6.50953 2.02266 5.15391 3.05578 3.99984C5.25328 1.545 8.44641 0 12 0C15.5536 0 18.7467 1.545 20.9442 3.99984C21.9773 5.15391 22.7902 6.50953 23.317 8.00016C23.7595 9.25125 24 10.5975 24 12Z" fill="#E40303"/>
<path d="M23.3169 8.00007H0.682861C1.20974 6.50944 2.02255 5.15382 3.05567 3.99976H20.9441C21.9772 5.15382 22.79 6.50944 23.3169 8.00007Z" fill="#FF8C00"/>
<path d="M24 12.0001H0C0 10.5976 0.240469 9.25134 0.682969 8.00024H23.317C23.7595 9.25134 24 10.5976 24 12.0001Z" fill="#FFED00"/>
<path d="M24 12C24 13.4025 23.7595 14.7487 23.317 15.9998H0.682969C0.240469 14.7487 0 13.4025 0 12H24Z" fill="#008026"/>
<path d="M23.3169 15.9999C22.79 17.4905 21.9772 18.8461 20.9441 20.0002H3.05567C2.02255 18.8461 1.20974 17.4905 0.682861 15.9999H23.3169Z" fill="#004DFF"/>
<path d="M20.9441 20.0001C18.7466 22.455 15.5535 24 11.9999 24C8.44629 24 5.25316 22.455 3.05566 20.0001H20.9441Z" fill="#750787"/>
</svg>
