
<svg width="24" height="24" viewBox="0 0 24 24" fill="none" xmlns="http://www.w3.org/2000/svg">
<circle cx="12" cy="12" r="12" fill="#5168D7"/>
<path d="M13.9088 5.00012V6.27285H16.8272L14.2977 8.80239C13.3177 8.01776 12.0774 7.54558 10.727 7.54558C7.56876 7.54558 4.99976 10.1152 4.99976 13.2728C4.99976 16.4305 7.56876 19.0001 10.727 19.0001C13.8853 19.0001 16.4543 16.4305 16.4543 13.2728C16.4543 11.9225 15.9821 10.6828 15.1975 9.70221L17.727 7.17267V10.091H18.9998V5.00012H13.9088ZM10.727 17.7274C8.2713 17.7274 6.27248 15.7292 6.27248 13.2728C6.27248 10.8165 8.2713 8.8183 10.727 8.8183C13.1828 8.8183 15.1816 10.8165 15.1816 13.2728C15.1816 15.7292 13.1828 17.7274 10.727 17.7274Z" fill="white"/>
</svg>
